<?xml version="1.0" encoding="utf-8"?>
<!-- Generator: Adobe Illustrator 22.1.0, SVG Export Plug-In . SVG Version: 6.00 Build 0)  -->
<svg version="1.1" id="Layer_1" xmlns="http://www.w3.org/2000/svg" xmlns:xlink="http://www.w3.org/1999/xlink" x="0px" y="0px"
	 viewBox="0 0 24 24" style="enable-background:new 0 0 24 24;" xml:space="preserve">
<style type="text/css">
	.st0{clip-path:url(#SVGID_2_);fill:#00AEEF;}
	.st1{fill-rule:evenodd;clip-rule:evenodd;fill:#FFFFFF;}
	.st2{fill:#FFFFFF;}
</style>
<g>
	<g>
		<defs>
			<rect id="SVGID_1_" x="0.3" y="0.3" width="23.4" height="23.4"/>
		</defs>
		<clipPath id="SVGID_2_">
			<use xlink:href="#SVGID_1_"  style="overflow:visible;"/>
		</clipPath>
		<path class="st0" d="M23.7,12c0,6.5-5.2,11.7-11.7,11.7C5.5,23.7,0.3,18.5,0.3,12C0.3,5.5,5.5,0.3,12,0.3
			C18.5,0.3,23.7,5.5,23.7,12L23.7,12z"/>
	</g>
	<path class="st1" d="M15.3,10.9c0.4,0,0.7,0.3,0.7,0.7c0,0.4-0.3,0.7-0.7,0.7l0,0l0,0c-0.4,0-0.8-0.3-0.8-0.7
		C14.6,11.2,14.9,10.9,15.3,10.9L15.3,10.9L15.3,10.9z M15.3,10c0.9,0,1.6,0.7,1.6,1.6c0,0.5-0.2,0.9-0.5,1.2
		c0.3,0.3,0.5,0.7,0.5,1.2c0,0.9-0.7,1.6-1.6,1.6c-0.9,0-1.6-0.7-1.6-1.6l0,0c0-0.2,0.2-0.4,0.4-0.4c0.2,0,0.4,0.2,0.4,0.4l0,0
		c0,0.4,0.3,0.8,0.8,0.8s0.7-0.3,0.7-0.8c0-0.4-0.3-0.7-0.7-0.7l0,0l0,0c-0.9,0-1.6-0.7-1.6-1.6C13.7,10.7,14.5,10,15.3,10L15.3,10
		L15.3,10z"/>
	<path class="st1" d="M11.9,10c0.9,0,1.6,0.7,1.6,1.6v0v1.2c0,0.2-0.2,0.4-0.4,0.4l0,0c-0.2,0-0.4-0.2-0.4-0.4v-1.2
		c0-0.4-0.3-0.7-0.7-0.7c-0.4,0-0.7,0.3-0.8,0.7v1.2c0,0.2-0.2,0.4-0.4,0.4l0,0c-0.2,0-0.4-0.2-0.4-0.4v-1.2v0
		C10.3,10.7,11,10,11.9,10L11.9,10L11.9,10z"/>
	<path class="st1" d="M4.2,11.6L4.2,11.6L4.2,11.6c0-0.4,0.3-0.7,0.7-0.7c0.4,0,0.7,0.3,0.7,0.7c0,0.4-0.3,0.7-0.7,0.7
		C4.6,12.4,4.2,12,4.2,11.6L4.2,11.6L4.2,11.6z M5,10c0.9,0,1.6,0.7,1.6,1.6c0,0.9-0.7,1.6-1.6,1.6c-0.9,0-1.6-0.7-1.6-1.6v0V8.8
		c0-0.2,0.2-0.4,0.4-0.4l0,0c0.2,0,0.4,0.2,0.4,0.4v1.4C4.4,10.1,4.7,10,5,10L5,10L5,10z"/>
	<path class="st1" d="M8.4,10.9c0.4,0,0.8,0.3,0.8,0.7c0,0.4-0.3,0.7-0.8,0.7c-0.4,0-0.7-0.3-0.7-0.7C7.7,11.2,8,10.9,8.4,10.9
		L8.4,10.9L8.4,10.9z M8.4,10c0.9,0,1.6,0.7,1.6,1.6c0,0.9-0.7,1.6-1.6,1.6c-0.9,0-1.6-0.7-1.6-1.6C6.8,10.7,7.5,10,8.4,10L8.4,10
		L8.4,10z"/>
	<path class="st1" d="M18.8,10.9c0.4,0,0.7,0.3,0.7,0.7c0,0.4-0.3,0.7-0.7,0.7c-0.4,0-0.7-0.3-0.7-0.7
		C18.1,11.2,18.4,10.9,18.8,10.9L18.8,10.9L18.8,10.9z M18.8,10c0.9,0,1.6,0.7,1.6,1.6c0,0.9-0.7,1.6-1.6,1.6
		c-0.9,0-1.6-0.7-1.6-1.6C17.2,10.7,17.9,10,18.8,10L18.8,10L18.8,10z"/>
	<path class="st1" d="M9.9,14.4c0-0.1-0.1-0.1-0.2-0.1c-0.1,0-0.2,0-0.2,0.1c0,0.2,0.5,0.1,0.5,0.5c0,0.2-0.2,0.4-0.4,0.4
		c-0.1,0-0.3,0-0.4-0.1L9.5,15c0.1,0.1,0.1,0.1,0.2,0.1c0.1,0,0.2,0,0.2-0.1c0-0.2-0.5-0.1-0.5-0.5c0-0.2,0.2-0.4,0.4-0.4
		c0.1,0,0.2,0,0.3,0.1L9.9,14.4L9.9,14.4z"/>
	<polygon class="st1" points="10.2,14.1 11,14.1 11,14.4 10.5,14.4 10.5,14.6 11,14.6 11,14.8 10.5,14.8 10.5,15 11,15 11,15.3 
		10.2,15.3 10.2,14.1 	"/>
	<polygon class="st1" points="11.1,14.1 11.9,14.1 11.9,14.4 11.4,14.4 11.4,14.6 11.9,14.6 11.9,14.8 11.4,14.8 11.4,15 11.9,15 
		11.9,15.3 11.1,15.3 11.1,14.1 	"/>
	<path class="st1" d="M13,14.9c0,0.3-0.2,0.4-0.4,0.4c-0.3,0-0.4-0.2-0.4-0.4v-0.7h0.2v0.7c0,0.1,0.1,0.3,0.3,0.3
		c0.2,0,0.3-0.1,0.3-0.3v-0.7H13V14.9L13,14.9z"/>
	<polygon class="st1" points="6.4,14.8 6,14.1 6.2,14.1 6.5,14.6 6.8,14.1 7,14.1 6.6,14.8 6.6,15.3 6.4,15.3 6.4,14.8 	"/>
	<path class="st1" d="M7.6,14.1c0.3,0,0.6,0.2,0.6,0.6c0,0.3-0.2,0.6-0.6,0.6c-0.3,0-0.6-0.2-0.6-0.6C7,14.4,7.2,14.1,7.6,14.1
		L7.6,14.1L7.6,14.1z M7.6,15.1c0.2,0,0.4-0.2,0.4-0.4c0-0.2-0.2-0.4-0.4-0.4c-0.2,0-0.4,0.2-0.4,0.4C7.2,14.9,7.3,15.1,7.6,15.1
		L7.6,15.1L7.6,15.1z"/>
	<path class="st1" d="M9.2,14.9c0,0.3-0.2,0.4-0.4,0.4c-0.3,0-0.4-0.2-0.4-0.4v-0.7h0.2v0.7c0,0.1,0.1,0.3,0.3,0.3
		C8.9,15.1,9,15,9,14.8v-0.7h0.2V14.9L9.2,14.9z"/>
	<path class="st1" d="M5.1,15.5c0,0-0.1,0-0.1,0c0,0-0.1,0-0.1,0L5,15.3c0,0,0,0,0.1,0c0,0,0,0,0.1,0c0,0,0.1,0,0.1,0
		c0,0,0,0,0.1-0.1l-0.4-0.8h0.2L5.3,15l0.2-0.6h0.2l-0.3,0.9c0,0,0,0.1-0.1,0.1c0,0,0,0.1-0.1,0.1C5.3,15.5,5.2,15.5,5.1,15.5
		C5.2,15.5,5.2,15.5,5.1,15.5L5.1,15.5L5.1,15.5z M4.4,15.3c-0.1,0-0.1,0-0.2,0c0,0-0.1-0.1-0.1-0.1v0.1H3.9v-1.2h0.2l0,0.5
		c0,0,0.1-0.1,0.1-0.1c0,0,0.1,0,0.2,0c0.1,0,0.1,0,0.1,0c0,0,0.1,0,0.1,0.1c0,0,0.1,0.1,0.1,0.1c0,0.1,0,0.1,0,0.2v0
		c0,0.1,0,0.1,0,0.2c0,0.1-0.1,0.1-0.1,0.1c0,0-0.1,0.1-0.1,0.1C4.5,15.3,4.4,15.3,4.4,15.3L4.4,15.3L4.4,15.3z M4.3,15.1
		C4.4,15.1,4.4,15.1,4.3,15.1c0.1,0,0.1-0.1,0.2-0.1c0,0,0-0.1,0.1-0.1c0,0,0-0.1,0-0.1v0c0,0,0-0.1,0-0.1c0,0,0-0.1-0.1-0.1
		c0,0,0,0-0.1-0.1c0,0-0.1,0-0.1,0s-0.1,0-0.1,0c0,0-0.1,0-0.1,0.1c0,0,0,0.1-0.1,0.1c0,0,0,0.1,0,0.1v0c0,0,0,0.1,0,0.1
		c0,0,0,0.1,0.1,0.1C4.2,15.1,4.2,15.1,4.3,15.1C4.3,15.1,4.3,15.1,4.3,15.1L4.3,15.1L4.3,15.1z"/>
	<path class="st2" d="M20.9,10.2C20.9,10.2,20.9,10.2,20.9,10.2C20.9,10.2,20.9,10.2,20.9,10.2C20.9,10.3,20.9,10.3,20.9,10.2
		L20.9,10.2l-0.1,0.3c0,0,0,0,0,0c0,0,0,0,0,0s0,0,0,0c0,0,0,0,0,0v-0.2h-0.1c0,0,0,0,0,0c0,0,0,0,0,0c0,0,0,0,0,0c0,0,0,0,0,0
		L20.9,10.2C20.9,10.2,20.9,10.2,20.9,10.2L20.9,10.2z"/>
	<path class="st2" d="M21.3,10.2C21.3,10.2,21.3,10.2,21.3,10.2l0,0.3c0,0,0,0,0,0c0,0,0,0,0,0c0,0,0,0,0,0c0,0,0,0,0,0L21.3,10.2
		l-0.1,0.2c0,0,0,0,0,0c0,0,0,0,0,0c0,0,0,0,0,0c0,0,0,0,0,0L21,10.3v0.2c0,0,0,0,0,0c0,0,0,0,0,0c0,0,0,0,0,0c0,0,0,0,0,0v-0.2
		c0,0,0,0,0,0c0,0,0,0,0,0c0,0,0,0,0,0c0,0,0,0,0,0l0.1,0.1L21.3,10.2C21.2,10.2,21.2,10.2,21.3,10.2C21.2,10.2,21.2,10.2,21.3,10.2
		C21.2,10.2,21.2,10.2,21.3,10.2L21.3,10.2z"/>
</g>
</svg>
