<svg xmlns="http://www.w3.org/2000/svg" viewBox="0 0 287.04 287.04"><defs><style>.cls-1{fill:#00aeef;}.cls-2,.cls-3{fill:#fff;}.cls-2{fill-rule:evenodd;}</style></defs><title>png</title><g id="Layer_2" data-name="Layer 2"><g id="Layer_1-2" data-name="Layer 1"><circle class="cls-1" cx="143.52" cy="143.52" r="143.52"/><path class="cls-2" d="M183.59,119.29a19.63,19.63,0,0,1,13.34,34.07,19.66,19.66,0,1,1-33,14.39h0a5.3,5.3,0,0,1,5.29-5.28,5.19,5.19,0,0,1,5.15,5.28h0a9.36,9.36,0,0,0,9.24,9.25,9.25,9.25,0,0,0,9.11-9.25,9.12,9.12,0,0,0-9.11-9.11h0a19.68,19.68,0,1,1,0-39.35Zm0,10.56a9.12,9.12,0,0,1,0,18.23h0a9.12,9.12,0,1,1,0-18.23Z"/><path class="cls-2" d="M141.2,119.29a19.65,19.65,0,0,1,19.55,19.41v14.66a5.28,5.28,0,0,1-5.16,5.28h0a5.3,5.3,0,0,1-5.28-5.28V139a9.13,9.13,0,0,0-9.11-9.11A9.24,9.24,0,0,0,132,139v14.4a5.3,5.3,0,0,1-5.29,5.28h0a5.28,5.28,0,0,1-5.15-5.28V138.7a19.67,19.67,0,0,1,19.68-19.41Z"/><path class="cls-2" d="M56.29,119.29A19.68,19.68,0,1,1,36.61,139.1V104.89a5.3,5.3,0,0,1,5.28-5.28h0a5.3,5.3,0,0,1,5.29,5.28v16.64a19,19,0,0,1,9.11-2.24ZM47.18,139h0a9.11,9.11,0,1,1,9.11,9.12A9.13,9.13,0,0,1,47.18,139Z"/><path class="cls-2" d="M98.68,119.29A19.68,19.68,0,1,1,79.13,139a19.64,19.64,0,0,1,19.55-19.67Zm0,10.56A9.12,9.12,0,1,1,89.57,139a9.16,9.16,0,0,1,9.11-9.11Z"/><path class="cls-2" d="M226,119.29A19.68,19.68,0,1,1,206.31,139,19.73,19.73,0,0,1,226,119.29Zm0,10.56a9.12,9.12,0,1,1-9.11,9.11,9.13,9.13,0,0,1,9.11-9.11Z"/><path class="cls-3" d="M252,121.6a.26.26,0,0,1,.09.21.29.29,0,0,1-.09.22.33.33,0,0,1-.23.07H251v2.68a.32.32,0,0,1-.09.23.36.36,0,0,1-.24.09.32.32,0,0,1-.24-.09.32.32,0,0,1-.09-.23V122.1h-.81a.29.29,0,0,1-.22-.08.29.29,0,0,1,0-.42.3.3,0,0,1,.22-.08h2.27A.3.3,0,0,1,252,121.6Z"/><path class="cls-3" d="M256,121.6a.3.3,0,0,1,.1.22v3a.31.31,0,0,1-.32.32.31.31,0,0,1-.32-.32v-2.06l-.85,1.29a.29.29,0,0,1-.12.1.22.22,0,0,1-.13,0,.25.25,0,0,1-.14,0,.35.35,0,0,1-.11-.1l-.85-1.33v2.1a.3.3,0,0,1-.08.23.27.27,0,0,1-.21.09.26.26,0,0,1-.21-.09.32.32,0,0,1-.09-.23v-3a.32.32,0,0,1,.1-.22.32.32,0,0,1,.23-.09.28.28,0,0,1,.15,0,.4.4,0,0,1,.12.1l1.11,1.71,1.15-1.71a.36.36,0,0,1,.11-.1.23.23,0,0,1,.14,0A.31.31,0,0,1,256,121.6Z"/></g></g></svg>